<svg width="32" height="32" viewBox="0 0 32 32" fill="none" xmlns="http://www.w3.org/2000/svg">
<circle cx="15.9995" cy="15.9995" r="13.9995" fill="#8D65C5"/>
<path d="M8.15608 9.02325C7.69367 9.61717 7.5 10.3831 7.5 11C7.5 11.4142 7.16421 11.75 6.75 11.75C6.33579 11.75 6 11.4142 6 11C6 10.1169 6.26706 9.00783 6.97251 8.10175C7.70113 7.16592 8.85865 6.5 10.5 6.5C10.9142 6.5 11.25 6.83579 11.25 7.25C11.25 7.66421 10.9142 8 10.5 8C9.31281 8 8.59533 8.45908 8.15608 9.02325Z" fill="#321B41"/>
<path d="M11.2635 20.6792C11.5788 20.4105 12.0522 20.4483 12.3208 20.7635C12.5205 20.9979 12.9873 21.3774 13.6584 21.6984C14.3188 22.0143 15.1288 22.25 16 22.25C17.7642 22.25 19.2091 21.2823 19.694 20.7467C19.972 20.4396 20.4463 20.416 20.7534 20.694C21.0604 20.972 21.084 21.4463 20.806 21.7534C20.0838 22.5511 18.2534 23.75 16 23.75C14.8624 23.75 13.8315 23.444 13.0111 23.0516C12.2014 22.6643 11.5476 22.1688 11.1792 21.7365C10.9105 21.4212 10.9483 20.9478 11.2635 20.6792Z" fill="#321B41"/>
<path d="M24.498 11C24.498 10.3831 24.3044 9.61717 23.842 9.02325C23.4027 8.45908 22.6852 8 21.498 8C21.0838 8 20.748 7.66421 20.748 7.25C20.748 6.83579 21.0838 6.5 21.498 6.5C23.1394 6.5 24.2969 7.16592 25.0255 8.10175C25.731 9.00783 25.998 10.1169 25.998 11C25.998 11.4142 25.6623 11.75 25.248 11.75C24.8338 11.75 24.498 11.4142 24.498 11Z" fill="#321B41"/>
<path d="M6.02746 13.5C6.00932 13.6642 6 13.831 6 14C6 16.4853 8.01472 18.5 10.5 18.5C12.9853 18.5 15 16.4853 15 14C15 13.831 14.9907 13.6642 14.9725 13.5H6.02746Z" fill="white"/>
<path d="M17.0275 13.5C17.0093 13.6642 17 13.831 17 14C17 16.4853 19.0147 18.5 21.5 18.5C23.9853 18.5 26 16.4853 26 14C26 13.831 25.9907 13.6642 25.9725 13.5H17.0275Z" fill="white"/>
<path d="M10.0137 13.5C10.0047 13.5821 10 13.6655 10 13.75C10 14.9926 11.0074 16 12.25 16C13.4926 16 14.5 14.9926 14.5 13.75C14.5 13.6655 14.4953 13.5821 14.4863 13.5H10.0137Z" fill="#321B41"/>
<path d="M21.0137 13.5C21.0047 13.5821 21 13.6655 21 13.75C21 14.9926 22.0074 16 23.25 16C24.4926 16 25.5 14.9926 25.5 13.75C25.5 13.6655 25.4953 13.5821 25.4863 13.5H21.0137Z" fill="#321B41"/>
<path d="M15.4969 7.99377C16.8759 7.99377 17.9938 6.87588 17.9938 5.49689C17.9938 4.11789 16.8759 3 15.4969 3C14.1179 3 13 4.11789 13 5.49689C13 6.87588 14.1179 7.99377 15.4969 7.99377Z" fill="#6B438B"/>
<path d="M3.5444 22.3976C2.55725 20.4799 2 18.3046 2 15.9993C2 15.7548 2.00626 15.5119 2.01864 15.2705C2.33444 15.1814 2.66761 15.1338 3.0119 15.1338C5.0284 15.1338 6.66309 16.7685 6.66309 18.785C6.66309 20.6206 5.30849 22.1398 3.5444 22.3976Z" fill="#6B438B"/>
<path d="M10.5 26C11.3284 26 12 25.3284 12 24.5C12 23.6716 11.3284 23 10.5 23C9.67157 23 9 23.6716 9 24.5C9 25.3284 9.67157 26 10.5 26Z" fill="#6B438B"/>
<path d="M29.9608 17.0424C29.8345 18.7569 29.3995 20.3855 28.7111 21.873C27.7169 21.5426 27 20.605 27 19.5C27 18.1193 28.1193 17 29.5 17C29.6574 17 29.8114 17.0145 29.9608 17.0424Z" fill="#6B438B"/>
<path d="M20.0607 29.4009C22.358 28.7056 24.4057 27.4358 26.0367 25.7586C25.4328 24.7077 24.2991 24 23 24C21.067 24 19.5 25.567 19.5 27.5C19.5 28.2008 19.706 28.8535 20.0607 29.4009Z" fill="#6B438B"/>
</svg>
